<mxfile host="app.diagrams.net" modified="2023-06-27T12:08:29.771Z" agent="Mozilla/5.0 (Windows NT 10.0; Win64; x64) AppleWebKit/537.36 (KHTML, like Gecko) Chrome/114.0.0.0 Safari/537.36" etag="QBI9ZEQQsSmCJ6UIElxg" version="21.2.1" type="github">
  <diagram name="Page-1" id="9361dd3d-8414-5efd-6122-117bd74ce7a7">
    <mxGraphModel dx="1316" dy="579" grid="1" gridSize="10" guides="1" tooltips="1" connect="1" arrows="1" fold="1" page="0" pageScale="1.5" pageWidth="826" pageHeight="1169" background="none" math="0" shadow="0">
      <root>
        <mxCell id="0" />
        <mxCell id="1" parent="0" />
        <mxCell id="5deMnd30youqiZLCmzWr-69" value="" style="rounded=0;whiteSpace=wrap;html=1;" vertex="1" parent="1">
          <mxGeometry x="40" y="30" width="800" height="610" as="geometry" />
        </mxCell>
        <mxCell id="5deMnd30youqiZLCmzWr-70" value="" style="rounded=0;whiteSpace=wrap;html=1;" vertex="1" parent="1">
          <mxGeometry x="50" y="250" width="780" height="370" as="geometry" />
        </mxCell>
        <mxCell id="5deMnd30youqiZLCmzWr-71" value="" style="rounded=0;whiteSpace=wrap;html=1;" vertex="1" parent="1">
          <mxGeometry x="52" y="250" width="358" height="40" as="geometry" />
        </mxCell>
        <mxCell id="5deMnd30youqiZLCmzWr-72" value="WishList" style="rounded=1;whiteSpace=wrap;html=1;" vertex="1" parent="1">
          <mxGeometry x="50" y="250" width="120" height="40" as="geometry" />
        </mxCell>
        <mxCell id="5deMnd30youqiZLCmzWr-73" value="Cart" style="rounded=1;whiteSpace=wrap;html=1;" vertex="1" parent="1">
          <mxGeometry x="170" y="251" width="120" height="40" as="geometry" />
        </mxCell>
        <mxCell id="5deMnd30youqiZLCmzWr-74" value="Orders" style="rounded=1;whiteSpace=wrap;html=1;fillColor=#0050ef;fontColor=#ffffff;strokeColor=#001DBC;" vertex="1" parent="1">
          <mxGeometry x="290" y="251" width="120" height="40" as="geometry" />
        </mxCell>
        <mxCell id="5deMnd30youqiZLCmzWr-75" value="" style="rounded=0;whiteSpace=wrap;html=1;" vertex="1" parent="1">
          <mxGeometry x="52" y="40" width="778" height="200" as="geometry" />
        </mxCell>
        <mxCell id="5deMnd30youqiZLCmzWr-76" value="Address" style="rounded=1;whiteSpace=wrap;html=1;" vertex="1" parent="1">
          <mxGeometry x="65" y="88" width="460" height="140" as="geometry" />
        </mxCell>
        <mxCell id="5deMnd30youqiZLCmzWr-77" value="" style="rounded=1;whiteSpace=wrap;html=1;" vertex="1" parent="1">
          <mxGeometry x="70" y="340" width="740" height="260" as="geometry" />
        </mxCell>
        <mxCell id="5deMnd30youqiZLCmzWr-78" value="Product Image" style="rounded=0;whiteSpace=wrap;html=1;" vertex="1" parent="1">
          <mxGeometry x="100" y="360" width="280" height="220" as="geometry" />
        </mxCell>
        <mxCell id="5deMnd30youqiZLCmzWr-79" value="Product Description" style="rounded=0;whiteSpace=wrap;html=1;" vertex="1" parent="1">
          <mxGeometry x="381" y="360" width="409" height="130" as="geometry" />
        </mxCell>
        <mxCell id="5deMnd30youqiZLCmzWr-80" value="Profile Page" style="rounded=0;whiteSpace=wrap;html=1;" vertex="1" parent="1">
          <mxGeometry x="52" y="40" width="338" height="40" as="geometry" />
        </mxCell>
        <mxCell id="5deMnd30youqiZLCmzWr-81" value="UserName" style="rounded=0;whiteSpace=wrap;html=1;align=left;" vertex="1" parent="1">
          <mxGeometry x="580" y="40" width="250" height="30" as="geometry" />
        </mxCell>
        <mxCell id="5deMnd30youqiZLCmzWr-82" value="Logout" style="rounded=0;whiteSpace=wrap;html=1;" vertex="1" parent="1">
          <mxGeometry x="710" y="40" width="120" height="30" as="geometry" />
        </mxCell>
        <mxCell id="5deMnd30youqiZLCmzWr-83" value="Place Order" style="rounded=0;whiteSpace=wrap;html=1;fillColor=default;" vertex="1" parent="1">
          <mxGeometry x="670" y="540" width="120" height="40" as="geometry" />
        </mxCell>
        <mxCell id="5deMnd30youqiZLCmzWr-84" value="Remove" style="rounded=0;whiteSpace=wrap;html=1;fillColor=default;" vertex="1" parent="1">
          <mxGeometry x="740" y="360" width="50" height="30" as="geometry" />
        </mxCell>
      </root>
    </mxGraphModel>
  </diagram>
</mxfile>
